# xmcd
#
# Track frame offsets: 
#        150
#        11865
#        24246
#        34856
#        43734
#        55111
#        64913
#        74953
#        84949
#        93048
#        104848
#        115246
#        127013
#
# Disc length: 1837 seconds
#
# Revision: 0
# Processed by: cddbd v1.5.2PL0 Copyright (c) Steve Scherf et al.
# Submitted via: ExactAudioCopy v0.99pb5
#
DISCID=b6072b0d
DTITLE=The Beatles  - A Hard Day's Night (2009 Stereo Remaster)
DYEAR=1900
DGENRE=
TTITLE0=A Hard Day's Night
TTITLE1=I Should Have Known Better
TTITLE2=If I Fell
TTITLE3=I'm Happy Just To Dance With You
TTITLE4=And I Love Her
TTITLE5=Tell Me Why
TTITLE6=Can't Buy Me Love
TTITLE7=Any Time At All
TTITLE8=I'll Cry Instead
TTITLE9=Things We Said Today
TTITLE10=When I Get Home
TTITLE11=You Can't Do That
TTITLE12=I'll Be Back
EXTD=
EXTT0=
EXTT1=
EXTT2=
EXTT3=
EXTT4=
EXTT5=
EXTT6=
EXTT7=
EXTT8=
EXTT9=
EXTT10=
EXTT11=
EXTT12=
PLAYORDER=
